<?xml version="1.0" standalone="no"?>
<!DOCTYPE svg PUBLIC "-//W3C//DTD SVG 20010904//EN"
 "http://www.w3.org/TR/2001/REC-SVG-20010904/DTD/svg10.dtd">
<svg version="1.0" xmlns="http://www.w3.org/2000/svg"
 width="260.000000pt" height="260.000000pt" viewBox="0 0 260.000000 260.000000"
 preserveAspectRatio="xMidYMid meet">
<metadata>
Created by potrace 1.14, written by Peter Selinger 2001-2017
</metadata>
<g transform="translate(0.000000,260.000000) scale(0.100000,-0.100000)"
fill="#000000" stroke="none">
<path d="M0 1300 l0 -1300 1300 0 1300 0 0 1300 0 1300 -1300 0 -1300 0 0
-1300z m2255 730 l130 -130 -113 -112 -112 -113 -132 132 -133 133 110 110
c60 60 112 110 115 110 3 0 64 -59 135 -130z m-832 -712 l-427 -427 29 -31
c16 -16 34 -30 39 -30 6 0 201 190 433 422 l423 423 60 -60 60 -60 -558 -557
-557 -558 -240 -109 c-132 -60 -241 -108 -242 -107 -2 2 45 108 103 237 l105
234 562 562 562 563 37 -37 38 -37 -427 -428z"/>
<path d="M823 718 c-38 -39 -62 -78 -93 -147 -22 -51 -39 -95 -38 -97 2 -1 44
15 93 37 64 29 105 56 143 92 28 28 52 55 52 59 0 4 -13 8 -29 8 -45 0 -61 10
-62 39 -1 63 -11 65 -66 9z"/>
</g>
</svg>
